<?xml version="1.0" encoding="utf-8"?>
<!-- Generator: Adobe Illustrator 27.3.1, SVG Export Plug-In . SVG Version: 6.00 Build 0)  -->
<svg version="1.1" id="katman_1" xmlns="http://www.w3.org/2000/svg" xmlns:xlink="http://www.w3.org/1999/xlink" x="0px" y="0px"
	 viewBox="0 0 512 512" style="enable-background:new 0 0 512 512;" xml:space="preserve">
<style type="text/css">
	.st0{fill:#005C7F;}
</style>
<g transform="translate(0.000000,512.000000) scale(0.100000,-0.100000)">
	<path class="st0" d="M2125,5005c-52-18-121-91-133-141c-6-22-18-106-28-187c-10-85-22-150-28-151c-74-17-235-79-299-116l-81-47
		l-137,102c-173,130-219,146-306,110c-50-21-546-515-573-570c-27-57-27-148,1-194c11-18,60-86,108-150l88-116l-39-71
		c-21-39-58-132-82-205l-44-134l-144-21c-205-29-211-31-256-70c-69-58-72-81-72-493c0-230,4-370,11-396c15-54,91-130,144-143
		c22-5,102-18,179-28l138-19l33-90c17-49,54-142,82-205l50-115l-89-134c-50-73-96-149-104-167c-18-44-18-93,2-140
		c22-52,512-546,569-574c27-13,62-20,102-20c68,0,89,12,268,148l90,68l105-49c58-28,141-65,185-83l80-32l21-154
		c26-185,34-215,78-257c59-57,90-61,485-61c224,0,370,4,395,11c50,14,131,94,142,140c4,19,17,99,28,178l21,143l90,33
		c50,17,135,53,189,78c54,26,103,47,108,47s78-47,163-105c154-105,155-105,215-105c33,0,77,7,98,16c50,20,513,481,553,549
		c33,57,39,133,15,188c-8,18-57,93-108,167l-95,134l45,96c25,52,61,135,82,185l37,90l187,36c208,41,239,56,280,135
		c20,38,21,54,21,450v411l-29,37c-44,58-77,72-235,101c-80,15-159,30-174,34c-25,6-33,18-67,110c-22,57-59,140-83,185l-43,82l89,114
		c136,174,147,194,147,260c0,98-23,129-302,406c-277,275-283,280-388,272c-63-4-71-9-280-155l-85-60l-100,45c-55,25-147,62-205,83
		l-105,37l-27,138c-49,250-46,243-92,289c-29,28-57,45-88,53C2856,5026,2178,5024,2125,5005z M2835,4059c347-45,693-231,923-499
		c216-251,338-541,372-888c11-104,10-122-10-215c-62-292-169-561-303-762c-71-106-57-106-155-3c-157,164-336,287-538,368l-109,43
		l-65-18c-264-72-274-74-378-75c-123,0-234,21-321,61c-35,16-76,29-92,29c-37,0-238-86-339-145c-148-87-295-211-382-324l-26-34
		l-51,73c-105,150-192,346-238,540c-37,154-43,417-15,585c83,486,387,897,826,1117C2212,4052,2511,4100,2835,4059z"/>
	<path class="st0" d="M2412,3546c-210-51-392-235-447-451c-19-76-19-224,0-300c44-173,162-320,316-393c46-22,106-45,133-51
		c72-18,221-15,297,4c208,54,390,235,443,441c20,78,21,231,1,309c-53,210-216,377-425,434C2644,3563,2497,3566,2412,3546z"/>
</g>
</svg>
