<?xml version="1.0" encoding="utf-8"?>
<!-- Generator: Adobe Illustrator 27.3.1, SVG Export Plug-In . SVG Version: 6.00 Build 0)  -->
<svg version="1.1" id="katman_1" xmlns="http://www.w3.org/2000/svg" xmlns:xlink="http://www.w3.org/1999/xlink" x="0px" y="0px"
	 viewBox="0 0 24 24" style="enable-background:new 0 0 24 24;" xml:space="preserve">
<style type="text/css">
	.st0{fill:#FFFFFF;stroke:#D1ECFC;stroke-miterlimit:10;}
</style>
<path class="st0" d="M19,3l-6,6l2,2l7-7V3 M12,12.5c-0.3,0-0.5-0.2-0.5-0.5s0.2-0.5,0.5-0.5s0.5,0.2,0.5,0.5S12.3,12.5,12,12.5
	 M6,20c-1.1,0-2-0.9-2-2c0-1.1,0.9-2,2-2c1.1,0,2,0.9,2,2C8,19.1,7.1,20,6,20 M6,8C4.9,8,4,7.1,4,6c0-1.1,0.9-2,2-2c1.1,0,2,0.9,2,2
	C8,7.1,7.1,8,6,8 M9.6,7.6C9.9,7.1,10,6.6,10,6c0-2.2-1.8-4-4-4S2,3.8,2,6s1.8,4,4,4c0.6,0,1.1-0.1,1.6-0.4L10,12l-2.4,2.4
	C7.1,14.1,6.6,14,6,14c-2.2,0-4,1.8-4,4s1.8,4,4,4s4-1.8,4-4c0-0.6-0.1-1.1-0.4-1.6L12,14l7,7h3v-1L9.6,7.6z"/>
</svg>
